<svg width="80" height="80" viewBox="0 0 80 80" fill="none" xmlns="http://www.w3.org/2000/svg">
<circle cx="40" cy="40" r="40" fill="#FFB800"/>
<g clip-path="url(#clip0_49_21)">
<path d="M44.6309 24.794C43.0916 25.1409 41.7836 26.2682 41.1838 27.7497L40.9525 28.335L31.3051 28.3711L21.6576 28.4073L21.4264 28.6241C21.159 28.877 21 29.2166 21 29.5346C21 29.8526 21.2674 30.3006 21.5781 30.4885L21.8311 30.6475L31.4135 30.6692L40.9959 30.6836L41.0898 31.0016C41.3428 31.9049 42.3039 33.1118 43.2 33.6321C44.6092 34.4631 46.3436 34.5137 47.8322 33.7766C48.8512 33.2635 49.8268 32.1579 50.1881 31.1028L50.3182 30.7198L53.7436 30.6836C57.1545 30.6475 57.1689 30.6475 57.4363 30.4813C57.7254 30.3006 58 29.8237 58 29.5057C58 29.2166 57.8338 28.8698 57.5736 28.6241L57.3424 28.4073L53.852 28.3856L50.3543 28.3639L50.1664 27.8436C49.6605 26.4633 48.4826 25.3432 47.0518 24.9024C46.3941 24.7 45.274 24.6495 44.6309 24.794ZM46.7555 27.2799C47.2975 27.5473 47.6805 27.9448 47.9406 28.5084C48.2152 29.0866 48.208 29.8959 47.9406 30.4813C47.6877 31.0233 47.2324 31.5002 46.7338 31.7459C46.3797 31.9266 46.2496 31.9483 45.6426 31.9483C44.9994 31.9483 44.9271 31.9338 44.5008 31.7026C43.9949 31.428 43.6336 31.0522 43.3879 30.5463C43.2506 30.2645 43.2217 30.0983 43.2217 29.4913C43.2217 28.8409 43.2434 28.7325 43.424 28.3856C44.0816 27.1354 45.5053 26.6657 46.7555 27.2799Z" fill="white"/>
<path d="M32.7215 34.7377C30.9076 34.9762 29.4189 36.1975 28.7975 37.9463L28.6746 38.3076L25.1986 38.3438C21.8383 38.3799 21.7299 38.3871 21.5348 38.5316C21.1518 38.8135 21.0361 39.0447 21.0361 39.5C21.0361 39.9553 21.1518 40.1865 21.5348 40.4684C21.7299 40.6129 21.8383 40.6201 25.1986 40.6562L28.6746 40.6924L28.7975 41.0537C29.3539 42.6219 30.5896 43.7564 32.2012 44.1684C32.8154 44.3273 33.8994 44.3273 34.5137 44.1684C34.7738 44.0961 35.2291 43.9227 35.5254 43.7781C36.5443 43.2795 37.5922 42.0438 37.9174 40.967L38.0041 40.6562L47.6371 40.6418C57.234 40.6201 57.2701 40.6201 57.4652 40.4684C57.8482 40.1865 57.9639 39.9553 57.9639 39.5C57.9639 39.0447 57.8482 38.8135 57.4652 38.5316C57.2701 38.3799 57.234 38.3799 47.6371 38.3582L38.0041 38.3438L37.9174 38.033C37.5994 36.9562 36.5443 35.7205 35.5254 35.2219C34.6293 34.7811 33.6465 34.6076 32.7215 34.7377ZM33.7621 37.0502C35.6771 37.3971 36.4938 39.7096 35.2002 41.1404C34.2318 42.2244 32.6275 42.275 31.6014 41.2633C30.6041 40.2805 30.6041 38.7195 31.6014 37.7295C31.9699 37.3682 32.3891 37.1441 32.8588 37.0502C33.2996 36.9635 33.2852 36.9635 33.7621 37.0502Z" fill="white"/>
<path d="M44.5947 44.8115C43.0049 45.1584 41.5307 46.5025 41.0826 48.0057L40.9959 48.3164L31.4135 48.3308L21.8311 48.3525L21.5564 48.526C20.841 48.9668 20.8266 49.9207 21.5348 50.441C21.7299 50.5928 21.7805 50.5928 31.3412 50.6289L40.9525 50.665L41.1838 51.2432C41.6535 52.3922 42.4268 53.2449 43.5035 53.7725C44.349 54.1916 45.0355 54.3433 45.8955 54.2928C47.8611 54.1771 49.5377 52.9197 50.1953 51.0769L50.3615 50.6289H53.7725H57.1834L57.4219 50.4627C57.7687 50.2314 57.9422 49.9641 57.9783 49.5955C58.0289 49.1908 57.7977 48.7428 57.4219 48.5115C57.1762 48.3525 57.1184 48.3525 53.7436 48.3164L50.3182 48.2803L50.1881 47.8973C49.8484 46.8928 48.8656 45.7582 47.9045 45.2596C46.9072 44.7392 45.6715 44.573 44.5947 44.8115ZM46.741 47.2541C47.2324 47.4998 47.6877 47.9767 47.9406 48.5187C48.0996 48.8512 48.1285 49.0391 48.1357 49.5088C48.1357 50.0219 48.1068 50.1447 47.8973 50.5711C47.6227 51.1275 47.2324 51.5105 46.6615 51.7779C46.3219 51.9369 46.1557 51.9658 45.6426 51.9658C45.115 51.9658 44.9705 51.9369 44.6164 51.7635C43.7348 51.3299 43.2578 50.6144 43.2 49.6461C43.1494 48.656 43.5469 47.8756 44.3418 47.3914C44.891 47.0662 45.0861 47.0156 45.7582 47.0373C46.2207 47.059 46.4303 47.1023 46.741 47.2541Z" fill="white"/>
</g>
<defs>
<clipPath id="clip0_49_21">
<rect width="37" height="37" fill="white" transform="translate(21 21)"/>
</clipPath>
</defs>
</svg>
